<svg xmlns="http://www.w3.org/2000/svg" width="1200" height="900" viewBox="0 0 1200 900">
  <defs>
    <linearGradient id="g" x1="0" y1="0" x2="1" y2="1">
      <stop offset="0" stop-color="#7c3aed" stop-opacity="0.55"/>
      <stop offset="0.5" stop-color="#22d3ee" stop-opacity="0.35"/>
      <stop offset="1" stop-color="#ffffff" stop-opacity="0.10"/>
    </linearGradient>
    <radialGradient id="r" cx="50%" cy="40%" r="70%">
      <stop offset="0" stop-color="#ffffff" stop-opacity="0.20"/>
      <stop offset="1" stop-color="#000000" stop-opacity="0"/>
    </radialGradient>
    <filter id="blur" x="-20%" y="-20%" width="140%" height="140%">
      <feGaussianBlur stdDeviation="18"/>
    </filter>
  </defs>

  <rect width="1200" height="900" fill="#05060A"/>
  <circle cx="360" cy="300" r="240" fill="url(#g)" filter="url(#blur)"/>
  <circle cx="820" cy="360" r="260" fill="url(#g)" filter="url(#blur)" opacity="0.85"/>
  <rect x="120" y="190" width="960" height="520" rx="60" fill="rgba(255,255,255,0.04)" stroke="rgba(255,255,255,0.10)"/>

  <g transform="translate(0 10)">
    <path d="M235 420c0-88 78-160 175-160s175 72 175 160-78 160-175 160-175-72-175-160z" fill="rgba(255,255,255,0.04)" stroke="rgba(255,255,255,0.18)" stroke-width="4"/>
    <path d="M615 420c0-88 78-160 175-160s175 72 175 160-78 160-175 160-175-72-175-160z" fill="rgba(255,255,255,0.04)" stroke="rgba(255,255,255,0.18)" stroke-width="4"/>

    <path d="M515 405c12-20 28-30 48-30s36 10 48 30" fill="none" stroke="rgba(255,255,255,0.30)" stroke-width="6" stroke-linecap="round"/>

    <path d="M180 385c-22 8-44 16-66 24-22 8-38 28-40 52" fill="none" stroke="rgba(255,255,255,0.22)" stroke-width="6" stroke-linecap="round"/>
    <path d="M1020 385c22 8 44 16 66 24 22 8 38 28 40 52" fill="none" stroke="rgba(255,255,255,0.22)" stroke-width="6" stroke-linecap="round"/>

    <path d="M310 420c0-52 46-95 100-95s100 43 100 95-46 95-100 95-100-43-100-95z" fill="url(#r)" opacity="0.9"/>
    <path d="M690 420c0-52 46-95 100-95s100 43 100 95-46 95-100 95-100-43-100-95z" fill="url(#r)" opacity="0.9"/>
  </g>

  <text x="600" y="790" text-anchor="middle" fill="rgba(255,255,255,0.55)" font-family="ui-sans-serif, system-ui" font-size="22" letter-spacing="6">AURORA / HERO PLACEHOLDER</text>
</svg>
